<svg xmlns="http://www.w3.org/2000/svg" version="1.1" xmlns:xlink="http://www.w3.org/1999/xlink" xmlns:svgjs="http://svgjs.dev/svgjs" width="1500" height="1625" viewBox="0 0 1500 1625"><g transform="matrix(1,0,0,1,0.24202842873603458,0.6578947368420813)"><svg viewBox="0 0 228 247" data-background-color="#ffffff" preserveAspectRatio="xMidYMid meet" height="1625" width="1500" xmlns="http://www.w3.org/2000/svg" xmlns:xlink="http://www.w3.org/1999/xlink"><g id="tight-bounds" transform="matrix(1,0,0,1,-0.03678832116787589,-0.09999999999999432)"><svg viewBox="0 0 228.07357664233575 247.2" height="247.2" width="228.07357664233575"><g><svg viewBox="0 0 228.07357664233575 247.2" height="247.2" width="228.07357664233575"><g><svg viewBox="0 0 228.07357664233575 247.2" height="247.2" width="228.07357664233575"><g id="textblocktransform"><svg viewBox="0 0 228.07357664233575 247.2" height="247.2" width="228.07357664233575" id="textblock"><g><svg viewBox="0 0 228.07357664233575 247.2" height="247.2" width="228.07357664233575"><g transform="matrix(1,0,0,1,0,0)"><svg width="228.07357664233575" viewBox="2.7 -32.25 31.599999999999998 34.25" height="247.2" data-palette-color="#dedede"><g class="wordmark-text-0" data-fill-palette-color="primary" id="text-0"><path d="M28.5 2Q24.15-4.75 20.03-10.88 15.9-17 13.25-20.78 10.6-24.55 9.9-25.55L9.9-25.55 9.65-25.55 9.4-4.2Q9.4-3.1 9.75-2.65 10.1-2.2 10.95-2.2L10.95-2.2 13.5-2.25 13.6-2.05 13.15 0.2Q12.6 0.15 10.9 0.08 9.2 0 7.85 0L7.85 0Q6.6 0 5.13 0.18 3.65 0.35 3.2 0.4L3.2 0.4 3.45-1.9Q5-2.1 5.75-2.83 6.5-3.55 6.55-5.05L6.55-5.05 7.2-26.9Q7.2-28.45 6.28-29.1 5.35-29.75 2.85-30L2.85-30 2.7-30.25 3.1-32.1Q3.55-32.05 5.05-31.95 6.55-31.85 7.4-31.85L7.4-31.85Q8.45-31.85 9.45-31.93 10.45-32 10.75-32.05L10.75-32.05Q14.45-26.3 18.18-20.8 21.9-15.3 24.4-11.75 26.9-8.2 27.55-7.25L27.55-7.25 27.8-7.25 27.8-27.5Q27.8-29.65 26.15-29.65L26.15-29.65 24.25-29.6 24.15-29.8 24.6-32.05Q25.1-32 26.5-31.93 27.9-31.85 29.35-31.85L29.35-31.85Q30.65-31.85 32.23-32.02 33.8-32.2 34.3-32.25L34.3-32.25 34.05-29.95Q32.3-29.7 31.5-28.98 30.7-28.25 30.65-26.8L30.65-26.8 29.95 1.3 28.5 2Z" fill="#dedede" data-fill-palette-color="primary"></path></g></svg></g></svg></g></svg></g></svg></g></svg></g><defs></defs></svg><rect width="228.07357664233575" height="247.2" fill="none" stroke="none" visibility="hidden"></rect></g></svg></g></svg>